<svg width="30" height="26" viewBox="0 0 30 26" fill="none" xmlns="http://www.w3.org/2000/svg">
<path d="M27.2527 0.019165H24.4554V2.67542H26.7182C26.7367 2.70618 26.746 2.7416 26.7451 2.7775V17.3653H3.25493V2.7775C3.25392 2.74178 3.26275 2.70647 3.28046 2.67542H5.54469V0.0191727H2.74736C2.19948 0.0197524 1.67421 0.237654 1.2868 0.625063C0.899389 1.01247 0.681488 1.53775 0.680908 2.08563V19.0064C0.681692 19.554 0.899726 20.079 1.28715 20.466C1.67458 20.853 2.19974 21.0705 2.74736 21.0707H10.5821L9.21893 24.5514C9.17253 24.6698 9.15575 24.7977 9.17005 24.9241C9.18436 25.0504 9.22931 25.1714 9.301 25.2764C9.37269 25.3814 9.46894 25.4673 9.5814 25.5267C9.69386 25.586 9.81911 25.617 9.94626 25.6169H20.0027C20.1292 25.6169 20.2537 25.5862 20.3656 25.5275C20.4776 25.4687 20.5735 25.3837 20.6454 25.2797C20.7172 25.1756 20.7627 25.0557 20.7779 24.9302C20.7932 24.8048 20.7777 24.6774 20.7329 24.5592L19.4108 21.0707H27.2527C27.8003 21.0704 28.3254 20.8529 28.7128 20.4659C29.1002 20.0789 29.3182 19.554 29.3191 19.0064V2.08562C29.3184 1.53777 29.1005 1.01257 28.7131 0.625189C28.3257 0.237806 27.8005 0.0198662 27.2527 0.019165Z" fill="white"/>
</svg>
