<svg width="4" height="5" viewBox="0 0 4 5" fill="none" xmlns="http://www.w3.org/2000/svg">
<path d="M0.531563 3.45931C0.597858 3.80011 0.780624 4.10723 1.04854 4.32805C1.31645 4.54887 1.65283 4.66963 2.00001 4.66963C2.3472 4.66963 2.68358 4.54887 2.95149 4.32805C3.2194 4.10723 3.40217 3.80011 3.46847 3.45931L3.69683 2.28219C3.72713 2.05939 3.7094 1.83268 3.64483 1.61729C3.58025 1.40191 3.47033 1.20284 3.32245 1.03346C3.17457 0.864072 2.99215 0.728298 2.78745 0.635255C2.58275 0.542212 2.3605 0.494055 2.13565 0.494019H1.86438C1.63953 0.494055 1.41728 0.542213 1.21258 0.635255C1.00788 0.728297 0.825461 0.86407 0.677578 1.03345C0.529696 1.20283 0.419775 1.4019 0.3552 1.61728C0.290625 1.83267 0.272892 2.05937 0.30319 2.28218L0.531563 3.45931Z" fill="white"/>
</svg>
