<svg width="18" height="20" viewBox="0 0 18 20" fill="none" xmlns="http://www.w3.org/2000/svg">
<path d="M1.72366 19.6928H16.276C16.3754 19.6929 16.4739 19.6733 16.5658 19.6353C16.6576 19.5972 16.7411 19.5414 16.8114 19.4711C16.8817 19.4008 16.9375 19.3174 16.9755 19.2255C17.0136 19.1336 17.0331 19.0352 17.0331 18.9357V1.14016C17.0331 1.04073 17.0136 0.942274 16.9755 0.850409C16.9375 0.758544 16.8817 0.675074 16.8114 0.604766C16.7411 0.534458 16.6576 0.478691 16.5658 0.440649C16.4739 0.402608 16.3754 0.383038 16.276 0.383057H1.72366C1.62423 0.383038 1.52577 0.402608 1.43391 0.440649C1.34204 0.478691 1.25857 0.534458 1.18826 0.604766C1.11795 0.675074 1.06219 0.758544 1.02415 0.850409C0.986104 0.942274 0.966534 1.04073 0.966553 1.14016V18.9357C0.966535 19.0352 0.986106 19.1336 1.02415 19.2255C1.06219 19.3174 1.11796 19.4008 1.18827 19.4711C1.25857 19.5414 1.34204 19.5972 1.43391 19.6353C1.52577 19.6733 1.62423 19.6929 1.72366 19.6928ZM2.48148 1.89656H15.5182V18.1793H2.48148V1.89656Z" fill="white"/>
</svg>
