<svg width="6" height="7" viewBox="0 0 6 7" fill="none" xmlns="http://www.w3.org/2000/svg">
<path d="M0.759334 2.75936L1.08603 4.44336C1.18088 4.93091 1.44235 5.3703 1.82563 5.6862C2.20891 6.00211 2.69014 6.17487 3.18683 6.17487C3.68352 6.17487 4.16475 6.00211 4.54803 5.6862C4.93131 5.3703 5.19279 4.93091 5.28763 4.44336L5.61433 2.75936C5.65768 2.44061 5.63231 2.11628 5.53993 1.80815C5.44754 1.50001 5.29029 1.21522 5.07873 0.972898C4.86716 0.730575 4.60619 0.536335 4.31334 0.403227C4.02049 0.270118 3.70254 0.201224 3.38086 0.201172H2.9928C2.67111 0.201223 2.35317 0.270117 2.06032 0.403225C1.76747 0.536333 1.50649 0.730573 1.29493 0.972896C1.08336 1.21522 0.926111 1.50001 0.83373 1.80815C0.74135 2.11628 0.715984 2.44061 0.759334 2.75936Z" fill="white"/>
</svg>
