<svg width="26" height="20" viewBox="0 0 26 20" fill="none" xmlns="http://www.w3.org/2000/svg">
<path d="M24.7481 0.547913H1.25155C0.920542 0.54793 0.603093 0.679428 0.369028 0.913483C0.134962 1.14754 0.00345045 1.46498 0.00341797 1.79599V2.02907C0.0037066 2.36 0.135299 2.6773 0.369306 2.91131C0.603314 3.14532 0.920614 3.27691 1.25155 3.2772V18.2592C1.25162 18.3965 1.27873 18.5324 1.33132 18.6591C1.38392 18.7859 1.46097 18.901 1.55808 18.998C1.65519 19.0949 1.77045 19.1718 1.89728 19.2242C2.02411 19.2767 2.16003 19.3036 2.29726 19.3034H5.82237C5.75035 19.1149 5.69494 18.9205 5.65676 18.7223V18.7207L5.43749 17.583H2.97192V4.20485H23.0277V17.583H20.5637L20.3429 18.7207C20.3038 18.9192 20.2484 19.1141 20.1773 19.3034H23.7039C23.9808 19.3034 24.2464 19.1933 24.4422 18.9975C24.638 18.8017 24.748 18.5362 24.7481 18.2592V3.2772C25.079 3.2769 25.3963 3.14531 25.6303 2.9113C25.8643 2.6773 25.9959 2.36 25.9962 2.02907V1.79599C25.9962 1.46498 25.8647 1.14754 25.6306 0.913489C25.3965 0.679435 25.0791 0.547936 24.7481 0.547913Z" fill="white"/>
</svg>
