<svg width="26" height="11" viewBox="0 0 26 11" fill="none" xmlns="http://www.w3.org/2000/svg">
<path d="M24.4303 7.47638C23.5706 7.0477 21.6841 6.41457 21.6841 6.41457V5.79169L21.7367 5.75204C22.1029 5.47186 22.3478 5.06196 22.421 4.60669L22.4315 4.54031H22.4827C22.621 4.54025 22.7562 4.499 22.8709 4.42183C22.9857 4.34466 23.0749 4.23506 23.1271 4.107C23.1893 3.99459 23.2219 3.86822 23.2219 3.73975C23.2219 3.65129 23.2051 3.56364 23.1723 3.48147C23.1559 3.39162 23.106 3.31135 23.0326 3.25691L22.8586 3.15121L22.9018 2.96231C23.2163 1.5917 22.1545 0.357165 20.7287 0.323135C20.694 0.322465 20.6597 0.322154 20.6256 0.322824C20.5916 0.322154 20.5573 0.322465 20.5226 0.323135C19.0968 0.357165 18.035 1.5917 18.3495 2.96231L18.3927 3.15121L18.2187 3.25691C18.1453 3.31135 18.0954 3.39161 18.0789 3.48147C18.0462 3.56365 18.0294 3.6513 18.0294 3.73975C18.0294 3.86822 18.062 3.99459 18.1242 4.107C18.1764 4.23506 18.2656 4.34466 18.3804 4.42183C18.4951 4.499 18.6303 4.54025 18.7686 4.54031H18.8198L18.8303 4.60669C18.9035 5.06196 19.1484 5.47187 19.5146 5.75204L19.5671 5.79169V6.41457C19.5671 6.41457 17.6806 7.0477 16.821 7.47638C16.8181 7.4778 16.8156 7.47966 16.8128 7.48111C16.8099 7.47966 16.8074 7.4778 16.8045 7.47638C15.9449 7.0477 14.0584 6.41457 14.0584 6.41457V5.79169L14.1109 5.75204C14.4771 5.47187 14.722 5.06196 14.7952 4.60669L14.8057 4.54031H14.8569C14.9952 4.54025 15.1304 4.499 15.2451 4.42183C15.3599 4.34466 15.4491 4.23506 15.5013 4.107C15.5635 3.99458 15.5961 3.86822 15.5961 3.73975C15.5961 3.65129 15.5793 3.56364 15.5465 3.48147C15.5301 3.39161 15.4802 3.31134 15.4068 3.25691L15.2328 3.15121L15.276 2.96231C15.5905 1.5917 14.5287 0.357162 13.1029 0.323132C13.0682 0.322462 13.0339 0.322153 12.9998 0.322823C12.9658 0.322153 12.9315 0.322462 12.8968 0.323132C11.471 0.357162 10.4092 1.5917 10.7237 2.96231L10.7669 3.15121L10.5929 3.25691C10.5195 3.31134 10.4696 3.39161 10.4532 3.48147C10.4204 3.56364 10.4036 3.65129 10.4036 3.73975C10.4036 3.86822 10.4362 3.99459 10.4984 4.107C10.5506 4.23505 10.6398 4.34465 10.7546 4.42183C10.8693 4.499 11.0045 4.54024 11.1428 4.5403H11.194L11.2045 4.60669C11.2777 5.06196 11.5226 5.47186 11.8888 5.75204L11.9414 5.79169V6.41457C11.9414 6.41457 10.0549 7.04769 9.1952 7.47638C9.19231 7.4778 9.18979 7.47966 9.18695 7.4811C9.18412 7.47966 9.18159 7.4778 9.17875 7.47638C8.31905 7.04769 6.43256 6.41457 6.43256 6.41457V5.79169L6.48506 5.75204C6.85131 5.47187 7.09622 5.06196 7.16937 4.60669L7.17995 4.5403H7.23114C7.36943 4.54024 7.50458 4.499 7.61934 4.42183C7.7341 4.34466 7.82328 4.23506 7.87551 4.107C7.93769 3.99458 7.9703 3.86822 7.97029 3.73975C7.9703 3.6513 7.95349 3.56365 7.92076 3.48147C7.90434 3.39161 7.85439 3.31134 7.78103 3.25691L7.60698 3.15121L7.65025 2.96231C7.96467 1.5917 6.90286 0.357162 5.47712 0.323132C5.44242 0.322462 5.40808 0.322153 5.37408 0.322823C5.34005 0.322153 5.30571 0.322462 5.27104 0.323132C3.84525 0.357162 2.78346 1.5917 3.09788 2.96231L3.14113 3.15121L2.96709 3.25691C2.89374 3.31134 2.84381 3.39161 2.82741 3.48147C2.79467 3.56364 2.77786 3.65129 2.77787 3.73975C2.77784 3.86822 2.81044 3.99459 2.87262 4.107C2.92485 4.23505 3.01402 4.34465 3.12878 4.42182C3.24354 4.49899 3.37868 4.54024 3.51697 4.5403H3.56816L3.57873 4.60669C3.65191 5.06196 3.89681 5.47186 4.26304 5.75204L4.31557 5.79169V6.41457C4.31557 6.41457 2.42907 7.04769 1.56941 7.47638C1.4405 7.54073 1.32856 7.63455 1.24266 7.75022C1.15676 7.8659 1.09932 8.00018 1.07498 8.14219C0.972562 8.90814 0.914674 9.67939 0.901611 10.4521H25.0981C25.085 9.67939 25.0271 8.90814 24.9247 8.14219C24.9004 8.00018 24.8429 7.8659 24.757 7.75023C24.6711 7.63455 24.5592 7.54074 24.4303 7.47638Z" fill="white"/>
</svg>
