<svg width="12" height="8" viewBox="0 0 12 8" fill="none" xmlns="http://www.w3.org/2000/svg">
<path d="M2.15749 2.30224C1.93893 2.30206 1.72439 2.36096 1.53655 2.47269C1.34872 2.58443 1.19457 2.74485 1.09041 2.93699C0.986257 3.12913 0.935963 3.34585 0.944851 3.56423C0.953739 3.7826 1.02148 3.99452 1.14091 4.17756C1.23667 4.31634 1.35687 4.43656 1.49563 4.53236C1.69239 4.661 1.92238 4.72952 2.15746 4.72952C2.39255 4.72952 2.62254 4.661 2.8193 4.53236L4.15134 5.86454C4.03623 6.04918 3.97288 6.26137 3.96792 6.47889C3.96295 6.69641 4.01655 6.91126 4.12311 7.10096C4.22966 7.29066 4.38525 7.44822 4.57359 7.55716C4.76193 7.6661 4.97609 7.72241 5.19365 7.72019C5.41122 7.71797 5.62419 7.6573 5.81026 7.54454C5.99634 7.43177 6.14868 7.27106 6.25134 7.07923C6.35399 6.88739 6.40319 6.67149 6.39379 6.45412C6.38438 6.23674 6.31671 6.0259 6.19786 5.84365L9.18025 2.9172C9.43198 3.08115 9.73552 3.14604 10.0323 3.09933C10.329 3.05262 10.598 2.89763 10.7872 2.66428C10.9764 2.43092 11.0724 2.13575 11.0568 1.83574C11.0411 1.53573 10.9149 1.25216 10.7024 1.03977C10.4899 0.827373 10.2063 0.701218 9.90632 0.685654C9.60631 0.67009 9.31116 0.766221 9.07787 0.955491C8.84457 1.14476 8.68966 1.41375 8.64305 1.71052C8.59643 2.0073 8.66141 2.31083 8.82545 2.56251L5.84314 5.4889C5.64282 5.35797 5.40816 5.28938 5.16886 5.2918C4.92955 5.29423 4.69633 5.36756 4.4987 5.50252L3.17399 4.17766C3.29344 3.99462 3.36119 3.78271 3.3701 3.56432C3.379 3.34594 3.32872 3.12921 3.22457 2.93706C3.12042 2.74491 2.96627 2.58447 2.77844 2.47272C2.5906 2.36098 2.37606 2.30207 2.15749 2.30224H2.15749Z" fill="white"/>
</svg>
