<svg width="30" height="30" viewBox="0 0 30 30" fill="none" xmlns="http://www.w3.org/2000/svg">
<path fill-rule="evenodd" clip-rule="evenodd" d="M0 15C0 6.71575 6.71575 0 15 0C23.2843 0 30 6.71575 30 15C30 23.2843 23.2843 30 15 30C6.71575 30 0 23.2843 0 15ZM14.9784 11.0133C16.1971 11.0133 17.0193 11.5406 17.4881 11.9811L19.3199 10.19C18.1948 9.14275 16.7308 8.5 14.9784 8.5C12.4398 8.5 10.2474 9.95888 9.18006 12.0823C8.74012 12.9633 8.48775 13.9528 8.48775 15C8.48775 16.0473 8.74012 17.0367 9.18006 17.9177L11.2859 16.2856L9.18725 17.9177C10.2546 20.0411 12.4398 21.5 14.9784 21.5C16.7308 21.5 18.202 20.9222 19.2766 19.9256C20.5026 18.7917 21.2094 17.1233 21.2094 15.1444C21.2094 14.61 21.1661 14.22 21.0723 13.8156H14.9784V16.2277H18.5554C18.4833 16.8272 18.0939 17.73 17.2284 18.3367C16.6803 18.7194 15.9448 18.9867 14.9784 18.9867C13.2619 18.9867 11.8052 17.8528 11.2859 16.2856C11.1489 15.8811 11.0696 15.4478 11.0696 15C11.0696 14.5522 11.1489 14.1189 11.2787 13.7144C11.8052 12.1473 13.2619 11.0133 14.9784 11.0133Z" fill="white"/>
</svg>
