<svg width="14" height="14" viewBox="0 0 14 14" fill="none" xmlns="http://www.w3.org/2000/svg">
<path fill-rule="evenodd" clip-rule="evenodd" d="M6.28313 0.441697C6.42245 0.44151 6.57238 0.441573 6.73413 0.441635L7.00082 0.441697C9.13682 0.441697 9.39001 0.449385 10.2335 0.487697C11.0135 0.523385 11.4368 0.653697 11.7188 0.763197C12.0922 0.908197 12.3583 1.08157 12.6382 1.36157C12.9182 1.64157 13.0915 1.90826 13.2369 2.28157C13.3464 2.56326 13.4769 2.98657 13.5124 3.76657C13.5507 4.60995 13.559 4.86326 13.559 6.99826C13.559 9.13332 13.5507 9.38663 13.5124 10.23C13.4767 11.01 13.3464 11.4333 13.2369 11.715C13.0919 12.0883 12.9182 12.3542 12.6382 12.634C12.3582 12.914 12.0923 13.0874 11.7188 13.2324C11.4372 13.3424 11.0135 13.4724 10.2335 13.508C9.39013 13.5464 9.13682 13.5547 7.00082 13.5547C4.86463 13.5547 4.61144 13.5464 3.76807 13.508C2.98807 13.472 2.56476 13.3417 2.28257 13.2322C1.90926 13.0872 1.64257 12.9138 1.36257 12.6338C1.08257 12.3538 0.909258 12.0878 0.763883 11.7143C0.654383 11.4327 0.523883 11.0093 0.488383 10.2293C0.45007 9.38601 0.442383 9.13263 0.442383 6.99626C0.442383 4.85995 0.45007 4.60795 0.488383 3.76457C0.52407 2.98457 0.654383 2.56126 0.763883 2.27926C0.908882 1.90588 1.08257 1.63926 1.36257 1.35926C1.64257 1.07926 1.90926 0.905885 2.28257 0.760572C2.56457 0.650572 2.98807 0.520572 3.76807 0.484697C4.50607 0.451384 4.79213 0.441385 6.28313 0.439697V0.441697ZM11.2712 1.77007C10.7412 1.77007 10.3111 2.19957 10.3111 2.72976C10.3111 3.25976 10.7412 3.68976 11.2712 3.68976C11.8012 3.68976 12.2312 3.25976 12.2312 2.72976C12.2312 2.19976 11.8012 1.76976 11.2712 1.76976V1.77007ZM2.89245 7.00013C2.89245 4.73132 4.73182 2.89182 7.00063 2.89176C9.26951 2.89176 11.1085 4.73126 11.1085 7.00013C11.1085 9.26901 9.26963 11.1077 7.00082 11.1077C4.73195 11.1077 2.89245 9.26901 2.89245 7.00013Z" fill="white"/>
</svg>
