<svg width="14" height="7" viewBox="0 0 14 7" fill="none" xmlns="http://www.w3.org/2000/svg">
<path d="M12.6121 0.952507L9.53925 0.132202L7.13042 1.89001L4.78667 0.13221L1.51199 0.959036C1.34183 1.00477 1.1875 1.09635 1.06581 1.22377C0.944121 1.3512 0.859752 1.50959 0.821899 1.68167L0.665649 2.84701C1.33246 3.94751 2.27452 4.85527 3.399 5.4808C4.52348 6.10634 5.79155 6.42807 7.07823 6.41427C8.36492 6.40047 9.6258 6.05163 10.7366 5.40212C11.8474 4.75262 12.7698 3.82487 13.4128 2.71032L13.2957 1.69471C13.264 1.51882 13.183 1.35559 13.0619 1.22414C12.9408 1.09269 12.7848 0.998462 12.6121 0.952507Z" fill="white"/>
</svg>
