<svg width="32" height="32" viewBox="0 0 32 32" fill="none" xmlns="http://www.w3.org/2000/svg">
<path d="M31.4951 13.9488C31.4539 13.6672 31.3122 13.41 31.0962 13.2246C30.8802 13.0392 30.6045 12.9381 30.3199 12.94H28.0739L27.9391 12.4683C27.6815 11.6306 27.3472 10.8184 26.9403 10.0422L26.7305 9.62191L28.2622 8.09026C28.4664 7.88575 28.5894 7.61401 28.6083 7.32559C28.6272 7.03718 28.5406 6.75173 28.3647 6.52236C27.5299 5.44249 26.557 4.47687 25.4708 3.65026C25.2414 3.47319 24.9554 3.38552 24.6661 3.40358C24.3769 3.42163 24.104 3.54418 23.8984 3.7484L22.3552 5.29165L21.9215 5.03862C21.1591 4.62456 20.3533 4.29558 19.519 4.05762L19.0593 3.91648V1.70757C19.0589 1.42229 18.9561 1.14663 18.7697 0.93071C18.5832 0.714787 18.3255 0.572936 18.0433 0.530946C17.3669 0.429418 16.6839 0.377371 15.9999 0.375221C15.3141 0.372072 14.6288 0.415377 13.9488 0.504839C13.6671 0.546085 13.4099 0.687758 13.2245 0.903736C13.0391 1.11971 12.9381 1.39544 12.94 1.68007V3.92666L12.4676 4.06144C11.6298 4.31889 10.8175 4.6528 10.0408 5.05897L9.62122 5.26878L8.08947 3.73747C7.88497 3.53328 7.61327 3.41031 7.32489 3.39146C7.03652 3.3726 6.75112 3.45913 6.52177 3.63496C5.44165 4.46959 4.476 5.44267 3.64967 6.52916C3.47272 6.7586 3.38515 7.04451 3.40325 7.33369C3.42135 7.62287 3.54388 7.89564 3.74806 8.10123L5.2916 9.64481L5.03856 10.0784C4.62492 10.841 4.29575 11.6464 4.05692 12.4804L3.91515 12.94H1.70742C1.42207 12.9405 1.14636 13.0433 0.930414 13.2298C0.714471 13.4163 0.572643 13.6742 0.530724 13.9564C0.429374 14.6329 0.377381 15.3159 0.375157 16C0.372043 16.6857 0.415255 17.3709 0.504497 18.0508C0.545666 18.3325 0.68731 18.5898 0.903304 18.7753C1.1193 18.9608 1.39507 19.0619 1.67976 19.06H3.92532L4.0601 19.5317C4.31771 20.3694 4.65206 21.1816 5.0589 21.9579L5.26871 22.3781L3.73709 23.9097C3.53283 24.1142 3.40982 24.3859 3.39095 24.6744C3.37207 24.9628 3.45862 25.2482 3.63449 25.4776C4.46932 26.5575 5.44229 27.5231 6.52846 28.3497C6.7579 28.5268 7.04386 28.6145 7.33311 28.5964C7.62237 28.5783 7.89521 28.4558 8.10085 28.2516L9.6441 26.7083L10.0777 26.9614C10.8403 27.3751 11.646 27.7041 12.4803 27.9424L12.9399 28.0835V30.2924C12.9404 30.5777 13.0431 30.8533 13.2296 31.0693C13.416 31.2852 13.6737 31.427 13.9559 31.469C14.6326 31.5706 15.3157 31.6227 15.9999 31.6248C16.6856 31.6279 17.3707 31.5846 18.0505 31.4951C18.3321 31.4539 18.5893 31.3122 18.7747 31.0962C18.9601 30.8803 19.0612 30.6045 19.0593 30.3199V28.0734L19.5317 27.9386C20.3694 27.6811 21.1818 27.3472 21.9584 26.941L22.378 26.7312L23.9098 28.2625C24.1143 28.4667 24.386 28.5897 24.6744 28.6085C24.9627 28.6274 25.2481 28.5408 25.4775 28.365C26.5576 27.5304 27.5232 26.5573 28.3496 25.4709C28.5265 25.2414 28.6141 24.9555 28.596 24.6663C28.5779 24.3771 28.4554 24.1043 28.2512 23.8988L26.7077 22.3552L26.9607 21.9216C27.3743 21.1591 27.7035 20.3536 27.9423 19.5197L28.0841 19.06H30.2921C30.5774 19.0595 30.8531 18.9567 31.069 18.7702C31.285 18.5837 31.4268 18.326 31.4688 18.0437C31.5703 17.3672 31.6225 16.6841 31.6247 16C31.6279 15.3141 31.5846 14.6288 31.4951 13.9488ZM15.9999 24.6359C14.2919 24.6359 12.6223 24.1294 11.2021 23.1805C9.78192 22.2316 8.67503 20.8828 8.02139 19.3048C7.36776 17.7268 7.19674 15.9904 7.52996 14.3152C7.86317 12.64 8.68566 11.1012 9.89342 9.89348C11.1012 8.68573 12.6399 7.86324 14.3151 7.53002C15.9903 7.1968 17.7267 7.36783 19.3047 8.02146C20.8828 8.67509 22.2315 9.78198 23.1804 11.2021C24.1293 12.6223 24.6358 14.292 24.6358 16C24.6358 18.2904 23.726 20.487 22.1064 22.1065C20.4869 23.726 18.2903 24.6359 15.9999 24.6359Z" fill="white"/>
</svg>
