<svg width="32" height="33" viewBox="0 0 32 33" fill="none" xmlns="http://www.w3.org/2000/svg">
<path fill-rule="evenodd" clip-rule="evenodd" d="M10.2969 19.6328L12.5833 26.7904L13.7344 22.5424L13.1693 21.8857C12.9141 21.4922 12.8594 21.1458 13 20.8493C13.3047 20.2064 13.9375 20.3256 14.5286 20.3256C15.1484 20.3256 15.9115 20.2009 16.1042 21.0239C16.1693 21.2982 16.0885 21.5892 15.9063 21.8857L15.3411 22.5424L16.4922 26.7904L18.5625 19.6328C19.0078 20.0568 19.7083 20.381 20.5208 20.6526C20.6432 20.4974 20.7734 20.345 20.9089 20.2009C22.0833 18.9511 23.7083 18.1753 25.5026 18.1753C27.2969 18.1753 28.9193 18.9484 30.0964 20.2009C31.2708 21.4506 32 23.1798 32 25.089C32 26.9983 31.2734 28.7246 30.0964 29.9771C28.9219 31.2269 27.2969 32.0028 25.5026 32.0028C24.1432 32.0028 22.8802 31.5566 21.8359 30.7974H1.58073C0.588542 30.717 0.0833333 30.1711 0 29.2262C0.252604 27.4056 0.322917 25.0253 1.36458 23.5594C1.74219 23.0274 2.21354 22.6339 2.73438 22.3263C4.38021 21.3481 8.80208 21.0627 10.2969 19.6328ZM22.1641 25.6792L23.3464 24.3602L25.0521 26.106L27.7083 22.3401L29.0286 23.4735C28.4063 24.2937 26.1875 27.5331 25.7031 27.9543C25.3047 28.3006 24.7318 28.3006 24.362 27.921L22.1641 25.6792ZM29.4141 20.9269C28.4141 19.8628 27.0313 19.2033 25.5026 19.2033C23.974 19.2033 22.5911 19.8628 21.5911 20.9269C20.5911 21.991 19.9714 23.4624 19.9714 25.089C19.9714 26.7156 20.5911 28.187 21.5911 29.2511C22.5911 30.3152 23.974 30.9747 25.5026 30.9747C27.0313 30.9747 28.4141 30.3152 29.4141 29.2511C30.4141 28.187 31.0339 26.7156 31.0339 25.089C31.0365 23.4624 30.4167 21.991 29.4141 20.9269ZM9.19792 9.39659C9.375 9.44924 9.55729 9.45479 9.7474 9.41322L9.42188 6.66712C9.58854 5.98821 9.84375 5.45894 10.1823 5.071C10.5365 4.66642 10.9792 4.41426 11.5078 4.30619C12.2083 4.25354 12.4193 4.79666 13.1198 5.27328C15.25 6.72254 17.0521 7.21024 19.6849 7.24626L19.3594 8.99756C19.3151 9.06961 19.2917 9.15828 19.2995 9.24973C19.2995 9.26358 19.3021 9.28021 19.3047 9.29407L19.2578 9.54346C19.3307 9.549 19.401 9.55177 19.4714 9.549C19.5365 9.59057 19.6146 9.61273 19.6979 9.60442C20.1563 9.56009 20.4349 9.60442 20.5104 9.76791C20.6146 9.9896 20.526 10.4413 20.2266 11.1673L18.7865 13.6917C18.25 14.6311 17.7083 15.5705 17.0182 16.2549C16.3568 16.9144 15.5417 17.3523 14.4297 17.3495C13.401 17.3467 12.625 16.9255 11.9818 16.302C11.3151 15.6536 10.776 14.7696 10.2656 13.9023L8.98698 11.7381L8.98177 11.7298C8.58854 11.1063 8.38542 10.5687 8.375 10.1559C8.3724 10.0173 8.39063 9.89538 8.4349 9.79562C8.47396 9.70695 8.53385 9.63213 8.61719 9.57117C8.75521 9.47418 8.94792 9.41599 9.19792 9.39659ZM20.5677 8.89503L20.6484 5.37027C20.5521 3.93764 20.1068 2.85416 19.3958 2.0367C17.6536 0.0304696 14.3984 -0.484944 11.9427 0.459981C11.5286 0.617931 11.138 0.820217 10.7813 1.0613C9.76823 1.74852 8.94792 2.74886 8.6224 3.99029C8.54427 4.28402 8.49219 4.57775 8.46354 4.87148C8.41146 6.10737 8.4401 7.58156 8.52344 8.75371C8.40885 8.80082 8.30469 8.85624 8.21094 8.92275C8.01302 9.06407 7.86458 9.24973 7.76823 9.46864C7.67708 9.67924 7.63542 9.91755 7.64323 10.1808C7.65885 10.7378 7.90104 11.4195 8.36979 12.1621L9.64844 14.3235C10.1875 15.2324 10.7526 16.1635 11.4922 16.884C12.2578 17.6294 13.1927 18.1337 14.4349 18.1392C15.7656 18.142 16.737 17.6183 17.526 16.8341C18.2865 16.0748 18.8594 15.0883 19.4193 14.1046L20.875 11.5525C20.8828 11.5386 20.8906 11.522 20.8958 11.5081C21.2943 10.5466 21.3802 9.87598 21.1719 9.43262C21.0521 9.15828 20.849 8.98648 20.5677 8.89503Z" fill="white"/>
</svg>
