<svg width="16" height="12" viewBox="0 0 16 12" fill="none" xmlns="http://www.w3.org/2000/svg">
<path d="M7.55075 3.19218L7.58225 3.71124L7.05763 3.64768C5.14806 3.40406 3.47981 2.57781 2.06331 1.19018L1.37088 0.501681L1.1925 1.01012C0.81475 2.14356 1.05606 3.34049 1.843 4.14549C2.26269 4.59043 2.16825 4.65399 1.44431 4.38918C1.1925 4.30443 0.972125 4.24087 0.951187 4.27262C0.87775 4.34681 1.12956 5.31068 1.32887 5.69206C1.60169 6.22168 2.15775 6.74068 2.76631 7.04787L3.28044 7.29149L2.67188 7.30212C2.08431 7.30212 2.06331 7.31268 2.12631 7.53512C2.33613 8.22362 3.165 8.95456 4.08831 9.27231L4.73887 9.49474L4.17225 9.83368C3.33288 10.321 2.34663 10.5964 1.36038 10.6176C0.888188 10.6282 0.5 10.6705 0.5 10.7023C0.5 10.8082 1.78006 11.4014 2.525 11.6344C4.75981 12.3229 7.41437 12.0264 9.40788 10.8506C10.8243 10.0138 12.2408 8.35074 12.9018 6.74068C13.2585 5.88268 13.6153 4.31499 13.6153 3.56293C13.6153 3.07568 13.6467 3.01212 14.2343 2.42956C14.5805 2.09056 14.9058 1.71981 14.9688 1.61393C15.0736 1.41268 15.0632 1.41268 14.5281 1.59274C13.6363 1.91049 13.5103 1.86812 13.951 1.39149C14.2762 1.05249 14.6644 0.438119 14.6644 0.258056C14.6644 0.226306 14.5071 0.279244 14.3287 0.374556C14.1399 0.480494 13.7202 0.639369 13.4054 0.734744L12.8388 0.914806L12.3247 0.565244C12.0414 0.374557 11.6427 0.162744 11.4329 0.0991812C10.8977 -0.0491313 10.0794 -0.0279435 9.59675 0.141557C8.28519 0.618244 7.45631 1.84693 7.55075 3.19218Z" fill="black"/>
</svg>
